{"title":"oasis_fullshow_cr_1128.wmv","uid":7391059,"size":607324097,"categoryP":"video","categoryS":"music_videos","magnet":"?xt=urn:btih:e4ba0805295746c73dee90e3f562e35364482b05&amp;dn=oasis_fullshow_cr_1128.wmv&amp;tr=udp%3A%2F%2Ftracker.openbittorrent.com%3A80&amp;tr=udp%3A%2F%2Fopen.demonii.com%3A1337&amp;tr=udp%3A%2F%2Ftracker.coppersurfer.tk%3A6969&amp;tr=udp%3A%2F%2Fexodus.desync.com%3A6969","seeders":1,"leechers":0,"uploader":"mesahawni","files":1,"time":1340780643,"description":"Noel Gallagher and Gem of Oasis LIVE in a semi-acoustic performance from Le cabaret sauvage in Paris, France November 28, 2006.\n\n\nFormat                                   : Windows Media\nFile size                                : 579 MiB\nDuration                                 : 1h 8mn\nOverall bit rate mode                    : Constant\nOverall bit rate                         : 1 181 Kbps\nMaximum Overall bit rate                 : 1 146 Kbps\nEncoded date                             : UTC 2006-11-29 05:40:37.129\n\nVideo \nID                                       : 4\nFormat                                   : VC-1\nFormat profile                           : MP@ML\nCodec ID                                 : WMV3\nCodec ID/Info                            : Windows Media Video 9\nCodec ID/Hint                            : WMV3\nDescription of the codec                 : Windows Media Video 9\nDuration                                 : 1h 8mn\nBit rate mode                            : Constant\nBit rate                                 : 595 Kbps\nWidth                                    : 424 pixels\nHeight                                   : 240 pixels\nDisplay aspect ratio                     : 16:9\nFrame rate                               : 29.970 fps\nBit depth                                : 8 bits\nScan type                                : Progressive\nCompression mode                         : Lossy\nBits/(Pixel*Frame)                       : 0.195\nStream size                              : 292 MiB (50%)\n\nAudio\nID                                       : 1\nFormat                                   : WMA\nFormat version                           : Version 2\nCodec ID                                 : 161\nCodec ID/Info                            : Windows Media Audio\nDescription of the codec                 : Windows Media Audio 9.2 - 96 kbps, \n                                           44 kHz, stereo 1-pass CBR\nDuration                                 : 1h 8mn\nBit rate mode                            : Constant\nBit rate                                 : 96.0 Kbps\nChannel(s)                               : 2 channels\nSampling rate                            : 44.1 KHz\nBit depth                                : 16 bits\nStream size                              : 47.1 MiB (8%)\n","torrent":{"xt":"urn:btih:e4ba0805295746c73dee90e3f562e35364482b05","amp;dn":"oasis_fullshow_cr_1128.wmv","amp;tr":["udp%3A%2F%2Ftracker.openbittorrent.com%3A80","udp%3A%2F%2Fopen.demonii.com%3A1337","udp%3A%2F%2Ftracker.coppersurfer.tk%3A6969","udp%3A%2F%2Fexodus.desync.com%3A6969"],"infoHash":"e4ba0805295746c73dee90e3f562e35364482b05","infoHashBuffer":{"type":"Buffer","data":[228,186,8,5,41,87,70,199,61,238,144,227,245,98,227,83,100,72,43,5]},"announce":[],"urlList":[]}}